<?xml version="1.0" standalone="no"?>
<!DOCTYPE svg PUBLIC "-//W3C//DTD SVG 20010904//EN"
 "http://www.w3.org/TR/2001/REC-SVG-20010904/DTD/svg10.dtd">
<svg version="1.0" xmlns="http://www.w3.org/2000/svg"
 width="82.000000pt" height="82.000000pt" viewBox="0 0 82.000000 82.000000"
 preserveAspectRatio="xMidYMid meet">
<metadata>
Created by potrace 1.11, written by Peter Selinger 2001-2013
</metadata>
<g transform="translate(0.000000,82.000000) scale(0.100000,-0.100000)"
fill="#000000" stroke="none">
<path d="M187 708 c-54 -11 -112 -43 -149 -83 l-33 -34 -1 -215 c0 -119 2
-216 6 -216 3 0 11 5 18 12 16 16 25 4 25 -30 l0 -28 71 35 c64 32 78 35 156
35 47 0 99 -1 115 -3 17 -2 62 0 101 4 81 9 164 -10 226 -51 21 -13 39 -24 41
-24 2 0 1 16 -1 35 -4 37 7 45 29 19 12 -14 14 -14 19 0 3 8 5 108 4 221 l0
205 -35 36 c-98 101 -259 115 -345 29 l-25 -25 -30 29 c-45 45 -120 65 -192
49z"/>
</g>
</svg>
